<?xml version="1.0" standalone="no"?><!DOCTYPE svg PUBLIC "-//W3C//DTD SVG 1.1//EN" "http://www.w3.org/Graphics/SVG/1.1/DTD/svg11.dtd"><svg t="1610440820950" class="icon" viewBox="0 0 1253 1024" version="1.1" xmlns="http://www.w3.org/2000/svg" p-id="1793" xmlns:xlink="http://www.w3.org/1999/xlink" width="244.7265625" height="200"><defs><style type="text/css"></style></defs><path d="M1224.46432 1024h-116.430067a19.486204 19.486204 0 0 1 0-38.972407h126.027022a19.486204 19.486204 0 0 1 0 38.972407zM1012.844148 1023.707707a19.486204 19.486204 0 1 1 0-38.972407h40.774881a19.486204 19.486204 0 0 1 0 38.972407zM923.01275 1023.658991c-218.68392 0-442.970124-3.263939-660.29001-6.430447l-126.660323-1.851189a19.486204 19.486204 0 0 1 0.292293-38.972407h0.292293l126.660323 1.851189c228.962892 3.312655 465.671551 6.771456 695.267745 6.430447a19.486204 19.486204 0 0 1 0 38.972407zM84.521408 1014.987631h-0.584586c-16.660704-0.487155-37.705804-0.682017-64.353187-0.535871H19.486204a19.486204 19.486204 0 0 1 0-38.972407c27.037108 0 48.715509 0 65.717221 0.535871a19.486204 19.486204 0 0 1-0.584586 38.972407z" p-id="1794"></path><path d="M915.364415 711.49001a33.418839 33.418839 0 1 1 33.370124-33.41884 33.467555 33.467555 0 0 1-33.370124 33.41884z m0-61.917412a28.547288 28.547288 0 1 0 28.498573 28.498572 28.547288 28.547288 0 0 0-28.498573-28.498572z" fill="#FF6903" p-id="1795"></path><path d="M366.584206 75.070599a23.383444 23.383444 0 1 1 23.383444-23.383444 23.383444 23.383444 0 0 1-23.383444 23.383444z m0-41.895337a18.511893 18.511893 0 1 0 18.511893 18.511893 18.511893 18.511893 0 0 0-18.511893-18.511893z" fill="#7AF4EB" p-id="1796"></path><path d="M1062.046813 0l9.986679 20.265652 22.311703 3.215223-16.173549 15.783825 3.848525 22.262988-19.973358-10.52255-20.022075 10.52255 3.848526-22.262988-16.173549-15.783825 22.311703-3.215223L1062.046813 0zM142.492864 420.366127l2.971646-17.294005-12.617317-12.276308 17.440152-2.533207 7.745766-15.783825L165.632731 388.262607l17.391436 2.533207L170.504282 403.072122l2.971646 17.294005-15.588963-8.184205z m15.540247-13.640342l9.109801 4.871551-1.510181-10.230257 7.356042-7.16118-10.132826-1.510181-4.579258-9.207231-4.530542 9.207231-10.181542 1.510181 7.356042 7.16118-1.705043 10.132826z" fill="#FF6903" p-id="1797"></path><path d="M998.034634 413.594672h-36.34177a4.871551 4.871551 0 0 1 0-9.743102h36.34177a4.871551 4.871551 0 0 1 0 9.743102z" fill="#7AF4EB" p-id="1798"></path><path d="M979.863749 431.765557a4.871551 4.871551 0 0 1-4.871551-4.871551v-36.34177a4.871551 4.871551 0 0 1 9.743102 0v36.34177a4.871551 4.871551 0 0 1-4.871551 4.871551zM97.820742 538.501237l-13.299334 9.694386 5.066413 15.637679h16.465842l5.115129-15.637679-13.34805-9.694386z" fill="#7AF4EB" p-id="1799"></path><path d="M1159.964986 464.892103m4.384396 0l2.874215 0q4.384396 0 4.384395 4.384396l0 18.511893q0 4.384396-4.384395 4.384396l-2.874215 0q-4.384396 0-4.384396-4.384396l0-18.511893q0-4.384396 4.384396-4.384396Z" fill="#EF3FE7" p-id="1800"></path><path d="M1135.099202 479.987232m3.100236-3.100236l2.032377-2.032377q3.100236-3.100236 6.200472 0l13.089885 13.089886q3.100236 3.100236 0 6.200472l-2.032377 2.032377q-3.100236 3.100236-6.200472 0l-13.089885-13.089886q-3.100236-3.100236 0-6.200472Z" fill="#EF3FE7" p-id="1801"></path><path d="M1128.105043 508.297621m0-4.384396l0-2.874215q0-4.384396 4.384396-4.384395l18.511893 0q4.384396 0 4.384396 4.384395l0 2.874215q0 4.384396-4.384396 4.384396l-18.511893 0q-4.384396 0-4.384396-4.384396Z" fill="#EF3FE7" p-id="1802"></path><path d="M1143.232255 533.22541m-3.100236-3.100236l-2.032377-2.032377q-3.100236-3.100236 0-6.200472l13.089886-13.089885q3.100236-3.100236 6.200472 0l2.032377 2.032377q3.100236 3.100236 0 6.200472l-13.089886 13.089885q-3.100236 3.100236-6.200472 0Z" fill="#EF3FE7" p-id="1803"></path><path d="M1171.510561 540.108849m-4.384395 0l-2.874215 0q-4.384396 0-4.384396-4.384396l0-18.511894q0-4.384396 4.384396-4.384395l2.874215 0q4.384396 0 4.384395 4.384395l0 18.511894q0 4.384396-4.384395 4.384396Z" fill="#EF3FE7" p-id="1804"></path><path d="M1196.442386 525.053874m-3.100236 3.100236l-2.032377 2.032376q-3.100236 3.100236-6.200472 0l-13.089885-13.089885q-3.100236-3.100236 0-6.200472l2.032377-2.032377q3.100236-3.100236 6.200472 0l13.089885 13.089886q3.100236 3.100236 0 6.200472Z" fill="#EF3FE7" p-id="1805"></path><path d="M1203.370504 496.752046m0 4.384395l0 2.874216q0 4.384396-4.384396 4.384395l-18.511893 0q-4.384396 0-4.384396-4.384395l0-2.874216q0-4.384396 4.384396-4.384395l18.511893 0q4.384396 0 4.384396 4.384395Z" fill="#EF3FE7" p-id="1806"></path><path d="M1188.246145 471.829475m3.100236 3.100236l2.032377 2.032377q3.100236 3.100236 0 6.200472l-13.089885 13.089885q-3.100236 3.100236-6.200472 0l-2.032377-2.032377q-3.100236-3.100236 0-6.200472l13.089885-13.089885q3.100236-3.100236 6.200472 0Z" fill="#EF3FE7" p-id="1807"></path><path d="M296.482588 702.47764m3.263939 0l0 0q3.263939 0 3.263939 3.263939l0 8.768792q0 3.263939-3.263939 3.263939l0 0q-3.263939 0-3.263939-3.263939l0-8.768792q0-3.263939 3.263939-3.263939Z" fill="#EF3FE7" p-id="1808"></path><path d="M282.568161 710.964316m2.307953-2.307953l0 0q2.307953-2.307953 4.615907 0l6.200472 6.200472q2.307953 2.307953 0 4.615907l0 0q-2.307953 2.307953-4.615907 0l-6.200472-6.200472q-2.307953-2.307953 0-4.615907Z" fill="#EF3FE7" p-id="1809"></path><path d="M278.652712 726.786679m0-3.263939l0 0q0-3.263939 3.263939-3.263939l8.768791 0q3.263939 0 3.26394 3.263939l0 0q0 3.263939-3.26394 3.263939l-8.768791 0q-3.263939 0-3.263939-3.263939Z" fill="#EF3FE7" p-id="1810"></path><path d="M287.129299 740.78058m-2.307954-2.307954l0 0q-2.307953-2.307953 0-4.615907l6.200472-6.200472q2.307953-2.307953 4.615907 0l0 0q2.307953 2.307953 0 4.615907l-6.200472 6.200472q-2.307953 2.307953-4.615907 0Z" fill="#EF3FE7" p-id="1811"></path><path d="M302.961751 744.616556m-3.263939 0l0 0q-3.263939 0-3.263939-3.263939l0-8.768792q0-3.263939 3.263939-3.263939l0 0q3.263939 0 3.263939 3.263939l0 8.768792q0 3.263939-3.263939 3.263939Z" fill="#EF3FE7" p-id="1812"></path><path d="M316.932129 736.19272m-2.307953 2.307954l0 0q-2.307953 2.307953-4.615907 0l-6.200472-6.200472q-2.307953-2.307953 0-4.615907l0 0q2.307953-2.307953 4.615907 0l6.200472 6.200472q2.307953 2.307953 0 4.615907Z" fill="#EF3FE7" p-id="1813"></path><path d="M320.840343 720.356232m0 3.263939l0 0q0 3.263939-3.26394 3.263939l-8.768791 0q-3.263939 0-3.263939-3.263939l0 0q0-3.263939 3.263939-3.263939l8.768791 0q3.263939 0 3.26394 3.263939Z" fill="#EF3FE7" p-id="1814"></path><path d="M312.344514 706.33084m2.307954 2.307953l0 0q2.307953 2.307953 0 4.615907l-6.200472 6.200472q-2.307953 2.307953-4.615907 0l0 0q-2.307953-2.307953 0-4.615907l6.200472-6.200472q2.307953-2.307953 4.615907 0Z" fill="#EF3FE7" p-id="1815"></path><path d="M92.900476 258.728069m-8.379068 0a8.379068 8.379068 0 1 0 16.758135 0 8.379068 8.379068 0 1 0-16.758135 0Z" fill="#EF3FE7" p-id="1816"></path><path d="M757.428735 367.655947a282.549952 282.549952 0 0 0 53.294766-27.329401c86.713606-56.753568 140.836537-147.315699 136.403426-243.869838a282.988392 282.988392 0 0 0-298.285062 108.489439" fill="#8ABB00" p-id="1817"></path><path d="M612.938535 210.158706a19.09648 19.09648 0 0 1-11.399429-3.702379 19.486204 19.486204 0 0 1-4.384396-27.183254 298.528639 298.528639 0 0 1 39.751855-44.818268 19.486204 19.486204 0 1 1 26.403806 28.644719 264.768792 264.768792 0 0 0-34.588011 38.972407 19.486204 19.486204 0 0 1-15.783825 8.086775zM687.327117 139.27764a19.486204 19.486204 0 0 1-10.668696-35.805899c5.602284-3.702379 11.399429-7.209895 17.147859-10.473834a19.486204 19.486204 0 0 1 19.19391 34.100856c-4.871551 2.8255-10.132826 5.943292-15.053092 9.158516a19.486204 19.486204 0 0 1-10.619981 3.020361zM745.347288 110.194481a19.486204 19.486204 0 0 1-6.674024-37.803235A305.300095 305.300095 0 0 1 915.85157 63.330162a19.486204 19.486204 0 0 1-9.499524 37.803235 266.425119 266.425119 0 0 0-154.623026 7.891912 18.804186 18.804186 0 0 1-6.381732 1.169172z" p-id="1818"></path><path d="M730.294196 378.568221a19.486204 19.486204 0 0 1-7.015033-37.559658 265.450809 265.450809 0 0 0 49.641103-25.478211 264.768792 264.768792 0 0 0 118.865842-232.372978 19.486204 19.486204 0 0 1 38.972408-1.705043 302.669458 302.669458 0 0 1-193.400571 295.898002 19.486204 19.486204 0 0 1-7.063749 1.217888z" p-id="1819"></path><path d="M753.775071 145.220932a2.435775 2.435775 0 0 1-1.315318-4.481826 37.559657 37.559657 0 0 1 20.265651-7.112465 2.435775 2.435775 0 0 1 2.338345 2.484491 2.533206 2.533206 0 0 1-2.484491 2.38706 33.370124 33.370124 0 0 0-17.537583 6.333016 2.046051 2.046051 0 0 1-1.266604 0.389724zM719.381922 192.815985a2.435775 2.435775 0 0 1-1.802474-0.779448c-7.209895-8.086775 4.871551-26.744814 20.022074-40.239011a2.435775 2.435775 0 1 1 3.263939 3.653663c-17.050428 15.199239-22.896289 29.667745-19.486203 33.321409a2.484491 2.484491 0 0 1 0 3.458801 2.630637 2.630637 0 0 1-1.997336 0.584586z" fill="#FFFFFF" p-id="1820"></path><path d="M853.300856 439.365176A282.79353 282.79353 0 0 0 910.980019 423.48392c96.456708-37.900666 167.873644-115.601903 183.316461-210.98687A282.988392 282.988392 0 0 0 780.227593 258.192198" fill="#8ABB00" p-id="1821"></path><path d="M747.880495 256.146147a19.486204 19.486204 0 0 1-13.153188-33.857279 304.715509 304.715509 0 0 1 48.033492-35.805899 19.486204 19.486204 0 0 1 20.07079 33.418839 261.017697 261.017697 0 0 0-41.797907 31.12921 19.486204 19.486204 0 0 1-13.153187 5.115129zM835.129971 201.877069a19.486204 19.486204 0 0 1-6.966317-37.608373c6.284301-2.484491 12.666032-4.871551 18.950333-6.771455a19.486204 19.486204 0 0 1 11.691722 37.364795c-5.504853 1.753758-11.058421 3.702379-16.563273 5.845861a19.193911 19.193911 0 0 1-7.112465 1.169172zM1061.998097 210.694577a19.486204 19.486204 0 0 1-8.476499-1.948621 265.937964 265.937964 0 0 0-152.966698-23.627022 19.486204 19.486204 0 1 1-5.650999-38.533967 305.397526 305.397526 0 0 1 175.61941 27.231969 19.486204 19.486204 0 0 1-8.525214 37.023787z" p-id="1822"></path><path d="M828.455947 444.918744a19.486204 19.486204 0 0 1-3.166508-38.972407 263.550904 263.550904 0 0 0 217.514747-218.099334 19.486204 19.486204 0 1 1 38.680115 6.479163 302.86432 302.86432 0 0 1-249.618269 250.349001 23.724453 23.724453 0 0 1-3.410085 0.243577z" p-id="1823"></path><path d="M895.488487 220.876118a2.484491 2.484491 0 0 1-2.289629-1.558896 2.435775 2.435775 0 0 1 1.461466-3.117793 37.413511 37.413511 0 0 1 21.239961-2.874215 2.435775 2.435775 0 0 1-1.120456 4.871551 32.931684 32.931684 0 0 0-18.414463 2.630637zM852.1804 260.530542a2.484491 2.484491 0 0 1-2.143483-1.217887c-5.407422-9.402093 10.278972-25.185918 27.816556-35.318744a2.435775 2.435775 0 0 1 2.435775 4.238249c-19.778497 11.399429-28.449857 24.357755-26.014081 28.644719a2.38706 2.38706 0 0 1-0.87688 3.312655 2.289629 2.289629 0 0 1-1.217887 0.341008z" fill="#FFFFFF" p-id="1824"></path><path d="M589.506375 451.933777m-277.678402 0a277.678402 277.678402 0 1 0 555.356803 0 277.678402 277.678402 0 1 0-555.356803 0Z" fill="#FDDC66" p-id="1825"></path><path d="M578.05823 174.255376a279.237298 279.237298 0 0 0-65.181351 7.745766 277.678402 277.678402 0 0 1 54.99981 547.367459c3.36137 0 6.771456 0.243578 10.181541 0.243578a277.678402 277.678402 0 0 0 0-555.356803z" fill="#F9BE58" p-id="1826"></path><path d="M310.269077 342.031589a19.486204 19.486204 0 0 1-17.196575-28.693435 289.223977 289.223977 0 0 1 32.200952-47.789914 19.486204 19.486204 0 0 1 29.960038 24.893625 247.133777 247.133777 0 0 0-27.76784 41.310752 19.486204 19.486204 0 0 1-17.196575 10.278972z" p-id="1827"></path><path d="M545.613701 734.727307A286.690771 286.690771 0 0 1 259.312655 448.182683a290.685442 290.685442 0 0 1 4.140818-48.715509A19.486204 19.486204 0 1 1 302.036156 406.189914a247.377355 247.377355 0 1 0 243.577545-205.189724 244.746717 244.746717 0 0 0-153.258991 53.246052 19.486204 19.486204 0 1 1-24.357755-30.59334A283.183254 283.183254 0 0 1 545.613701 162.027783a286.349762 286.349762 0 0 1 0 572.699524z" p-id="1828"></path><path d="M555.405519 448.377545m-227.69629 0a227.696289 227.696289 0 1 0 455.392579 0 227.696289 227.696289 0 1 0-455.392579 0Z" fill="#FFFFFF" p-id="1829"></path><path d="M555.405519 448.377545m-188.870029 0a188.870029 188.870029 0 1 0 377.740057 0 188.870029 188.870029 0 1 0-377.740057 0Z" fill="#FDDC66" p-id="1830"></path><path d="M555.405519 448.377545m-8.963654 0a8.963654 8.963654 0 1 0 17.927307 0 8.963654 8.963654 0 1 0-17.927307 0Z" fill="#FFFFFF" p-id="1831"></path><path d="M555.356803 424.653092a4.871551 4.871551 0 0 1-4.871551-4.871551V258.192198a4.871551 4.871551 0 1 1 9.743102 0v161.589343a4.871551 4.871551 0 0 1-4.871551 4.871551zM535.237298 433.03216a4.871551 4.871551 0 0 1-3.458801-1.461465L417.491912 317.332826a4.871551 4.871551 0 0 1 6.917603-6.917602l114.237868 114.286584a4.871551 4.871551 0 0 1 0 6.868887 4.871551 4.871551 0 0 1-3.410085 1.461465zM526.85823 453.054234H365.366318a4.871551 4.871551 0 0 1 0-9.743102h161.638059a4.871551 4.871551 0 0 1 0 9.743102zM420.950714 587.703901a4.871551 4.871551 0 0 1-3.458802-1.41275 4.871551 4.871551 0 0 1 0-6.868886l114.286585-114.286585a4.871551 4.871551 0 0 1 6.868886 6.868887l-114.237868 114.286584a4.871551 4.871551 0 0 1-3.458801 1.41275zM555.356803 643.434443a4.871551 4.871551 0 0 1-4.871551-4.871551V476.924833a4.871551 4.871551 0 0 1 9.743102 0v161.638059a4.871551 4.871551 0 0 1-4.871551 4.871551zM689.909039 587.703901a4.871551 4.871551 0 0 1-3.458801-1.41275l-114.237869-114.286584a4.871551 4.871551 0 1 1 6.868887-6.868887l114.286584 114.286585a4.871551 4.871551 0 0 1 0 6.868886 4.871551 4.871551 0 0 1-3.458801 1.41275zM745.590866 453.054234h-161.589344a4.871551 4.871551 0 0 1 0-9.743102h161.589344a4.871551 4.871551 0 0 1 0 9.743102zM575.622455 433.03216a4.871551 4.871551 0 0 1-3.410086-1.461465 4.871551 4.871551 0 0 1 0-6.868887l114.237869-114.286584a4.871551 4.871551 0 0 1 6.917602 6.917602l-114.286584 114.237869a4.871551 4.871551 0 0 1-3.458801 1.461465z" fill="#FFFFFF" p-id="1832"></path><path d="M483.988582 422.217317a2.38706 2.38706 0 0 1-1.461465-0.487155l-17.050428-12.90961a2.435775 2.435775 0 1 1 2.92293-3.897241l17.050429 12.90961a2.435775 2.435775 0 0 1 0.487155 3.410086 2.484491 2.484491 0 0 1-1.948621 0.97431z" p-id="1833"></path><path d="M470.250809 438.78059a2.338344 2.338344 0 0 1-1.558897-0.535871 2.484491 2.484491 0 0 1-0.292293-3.458801L482.283539 418.514938a2.38706 2.38706 0 0 1 3.410086-0.292293 2.484491 2.484491 0 0 1 0.292293 3.458801l-13.88392 16.27098a2.338344 2.338344 0 0 1-1.851189 0.828164zM608.359277 422.217317a2.484491 2.484491 0 0 1-1.94862-0.97431 2.435775 2.435775 0 0 1 0.487155-3.410086l17.050428-12.90961a2.435775 2.435775 0 0 1 2.92293 3.897241l-17.050428 12.90961a2.38706 2.38706 0 0 1-1.461465 0.487155z" p-id="1834"></path><path d="M622.09705 438.78059a2.338344 2.338344 0 0 1-1.851189-0.828164l-13.88392-16.27098a2.484491 2.484491 0 0 1 0.292293-3.458801 2.38706 2.38706 0 0 1 3.410086 0.292293l13.88392 16.27098a2.484491 2.484491 0 0 1-0.389724 3.653663 2.338344 2.338344 0 0 1-1.461466 0.341009zM573.381541 480.968221a17.976023 17.976023 0 1 1-35.90333 0c0-9.743102 8.038059 1.558896 17.927308 1.558896s17.976023-11.448145 17.976022-1.558896z" p-id="1835"></path><path d="M556.769553 501.087726c-4.433111 5.894577-10.181541 9.061085-12.763464 7.112464s-1.071741-8.330352 3.361371-14.273644a8.817507 8.817507 0 0 1 12.812178-2.240913c2.581922 1.997336 1.071741 3.458801-3.410085 9.402093z" fill="#F7632F" p-id="1836"></path></svg>